<?xml version="1.0" encoding="utf-8"?>
<!-- Generator: Adobe Illustrator 21.0.0, SVG Export Plug-In . SVG Version: 6.00 Build 0)  -->
<svg version="1.1" xmlns="http://www.w3.org/2000/svg" xmlns:xlink="http://www.w3.org/1999/xlink" x="0px" y="0px"
	 viewBox="0 0 48 48" enable-background="new 0 0 48 48" xml:space="preserve">
<g id="Layer_2" display="none">
	<rect display="inline" fill="#F9EC31" width="48" height="48"/>
</g>
<g id="Layer_4">
	<g>
		<g>
			<path d="M22.42,28.46l-0.39-5.89c-0.07-1.15-0.11-1.97-0.11-2.47c0-0.68,0.18-1.21,0.53-1.59c0.36-0.38,0.83-0.57,1.41-0.57
				c0.71,0,1.18,0.24,1.42,0.73c0.24,0.49,0.35,1.19,0.35,2.11c0,0.54-0.03,1.09-0.08,1.65l-0.53,6.07
				c-0.06,0.72-0.18,1.28-0.37,1.66c-0.19,0.38-0.5,0.58-0.94,0.58c-0.44,0-0.75-0.19-0.92-0.56C22.62,29.79,22.5,29.22,22.42,28.46
				z M23.79,36.56c-0.5,0-0.94-0.16-1.31-0.49c-0.37-0.32-0.56-0.78-0.56-1.36c0-0.51,0.18-0.94,0.53-1.3
				c0.36-0.36,0.79-0.53,1.31-0.53c0.52,0,0.96,0.18,1.32,0.53c0.37,0.36,0.55,0.79,0.55,1.3c0,0.57-0.18,1.02-0.55,1.35
				C24.71,36.39,24.28,36.56,23.79,36.56z"/>
		</g>
		<g>
			<path d="M46.11,44.93H1.89c-0.64,0-1.24-0.34-1.56-0.9c-0.32-0.56-0.32-1.24,0-1.8L22.44,3.94c0.64-1.11,2.48-1.11,3.12,0
				l22.11,38.29c0.32,0.56,0.32,1.24,0,1.8C47.35,44.59,46.75,44.93,46.11,44.93L46.11,44.93z M5.01,41.33h37.98L24,8.44L5.01,41.33
				L5.01,41.33z"/>
		</g>
	</g>
</g>
</svg>
