<?xml version="1.0" encoding="UTF-8"?>
<svg width="91px" height="91px" viewBox="0 0 91 91" version="1.1" xmlns="http://www.w3.org/2000/svg" xmlns:xlink="http://www.w3.org/1999/xlink">
    <!-- Generator: Sketch 46.2 (44496) - http://www.bohemiancoding.com/sketch -->
    <title>audience_icon</title>
    <desc>Created with Sketch.</desc>
    <defs></defs>
    <g id="Page-1" stroke="none" stroke-width="1" fill="none" fill-rule="evenodd">
        <g id="Homepage" transform="translate(-1001.000000, -1742.000000)">
            <g id="CALL-FOR" transform="translate(0.000000, 1367.000000)">
                <g id="audience_icon" transform="translate(1002.000000, 376.000000)">
                    <path d="M88.4188,44.4614 C88.4188,68.7384 68.7388,88.4194 44.4618,88.4194 C20.1848,88.4194 0.5038,68.7384 0.5038,44.4614 C0.5038,20.1844 20.1848,0.5044 44.4618,0.5044 C68.7388,0.5044 88.4188,20.1844 88.4188,44.4614" id="Fill-1" fill="#FFFFFF"></path>
                    <path d="M88.4188,44.4614 C88.4188,68.7384 68.7388,88.4194 44.4618,88.4194 C20.1848,88.4194 0.5038,68.7384 0.5038,44.4614 C0.5038,20.1844 20.1848,0.5044 44.4618,0.5044 C68.7388,0.5044 88.4188,20.1844 88.4188,44.4614 Z" id="Stroke-3" stroke="#231F20" stroke-width="3.009"></path>
                    <path d="M28.8822,66.5156 L17.9372,66.5156 C17.5602,66.5156 17.2532,66.2076 17.2532,65.8316 L15.8832,50.0986 C15.8832,49.7236 16.1922,49.4146 16.5682,49.4146 L23.4662,51.4686 L30.2512,49.4146 C30.6272,49.4146 30.9352,49.7236 30.9352,50.0986 L29.5662,65.8316 C29.5662,66.2076 29.2582,66.5156 28.8822,66.5156" id="Fill-5" fill="#92A7A8"></path>
                    <path d="M28.8822,66.5156 L17.9372,66.5156 C17.5602,66.5156 17.2532,66.2076 17.2532,65.8316 L15.8832,50.0986 C15.8832,49.7236 16.1922,49.4146 16.5682,49.4146 L23.4662,51.4686 L30.2512,49.4146 C30.6272,49.4146 30.9352,49.7236 30.9352,50.0986 L29.5662,65.8316 C29.5662,66.2076 29.2582,66.5156 28.8822,66.5156 Z" id="Stroke-7" stroke="#231F20" stroke-width="3"></path>
                    <path d="M28.4247,41.2051 C28.4247,44.1011 26.0767,46.4501 23.1797,46.4501 C20.2837,46.4501 17.9357,44.1011 17.9357,41.2051 C17.9357,38.3091 20.2837,35.9601 23.1797,35.9601 C26.0767,35.9601 28.4247,38.3091 28.4247,41.2051" id="Fill-9" fill="#FFFFFF"></path>
                    <path d="M28.4247,41.2051 C28.4247,44.1011 26.0767,46.4501 23.1797,46.4501 C20.2837,46.4501 17.9357,44.1011 17.9357,41.2051 C17.9357,38.3091 20.2837,35.9601 23.1797,35.9601 C26.0767,35.9601 28.4247,38.3091 28.4247,41.2051 Z" id="Stroke-11" stroke="#231F20" stroke-width="3"></path>
                    <path d="M50.101,66.5156 L39.156,66.5156 C38.78,66.5156 38.472,66.2076 38.472,65.8316 L37.103,50.0986 C37.103,49.7236 37.411,49.4146 37.787,49.4146 L44.685,51.4686 L51.47,49.4146 C51.847,49.4146 52.154,49.7236 52.154,50.0986 L50.785,65.8316 C50.785,66.2076 50.477,66.5156 50.101,66.5156" id="Fill-13" fill="#92A7A8"></path>
                    <path d="M50.101,66.5156 L39.156,66.5156 C38.78,66.5156 38.472,66.2076 38.472,65.8316 L37.103,50.0986 C37.103,49.7236 37.411,49.4146 37.787,49.4146 L44.685,51.4686 L51.47,49.4146 C51.847,49.4146 52.154,49.7236 52.154,50.0986 L50.785,65.8316 C50.785,66.2076 50.477,66.5156 50.101,66.5156 Z" id="Stroke-15" stroke="#231F20" stroke-width="3"></path>
                    <path d="M49.6439,41.2051 C49.6439,44.1011 47.2959,46.4501 44.3989,46.4501 C41.5029,46.4501 39.1549,44.1011 39.1549,41.2051 C39.1549,38.3091 41.5029,35.9601 44.3989,35.9601 C47.2959,35.9601 49.6439,38.3091 49.6439,41.2051" id="Fill-17" fill="#FFFFFF"></path>
                    <path d="M49.6439,41.2051 C49.6439,44.1011 47.2959,46.4501 44.3989,46.4501 C41.5029,46.4501 39.1549,44.1011 39.1549,41.2051 C39.1549,38.3091 41.5029,35.9601 44.3989,35.9601 C47.2959,35.9601 49.6439,38.3091 49.6439,41.2051 Z" id="Stroke-19" stroke="#231F20" stroke-width="3"></path>
                    <path d="M70.6356,66.5156 L59.6906,66.5156 C59.3146,66.5156 59.0066,66.2076 59.0066,65.8316 L57.6376,50.0986 C57.6376,49.7236 57.9456,49.4146 58.3216,49.4146 L65.2196,51.4686 L72.0046,49.4146 C72.3806,49.4146 72.6886,49.7236 72.6886,50.0986 L71.3196,65.8316 C71.3196,66.2076 71.0116,66.5156 70.6356,66.5156" id="Fill-21" fill="#92A7A8"></path>
                    <path d="M70.6356,66.5156 L59.6906,66.5156 C59.3146,66.5156 59.0066,66.2076 59.0066,65.8316 L57.6376,50.0986 C57.6376,49.7236 57.9456,49.4146 58.3216,49.4146 L65.2196,51.4686 L72.0046,49.4146 C72.3806,49.4146 72.6886,49.7236 72.6886,50.0986 L71.3196,65.8316 C71.3196,66.2076 71.0116,66.5156 70.6356,66.5156 Z" id="Stroke-23" stroke="#231F20" stroke-width="3"></path>
                    <path d="M70.1786,41.2051 C70.1786,44.1011 67.8306,46.4501 64.9336,46.4501 C62.0376,46.4501 59.6896,44.1011 59.6896,41.2051 C59.6896,38.3091 62.0376,35.9601 64.9336,35.9601 C67.8306,35.9601 70.1786,38.3091 70.1786,41.2051" id="Fill-25" fill="#FFFFFF"></path>
                    <path d="M70.1786,41.2051 C70.1786,44.1011 67.8306,46.4501 64.9336,46.4501 C62.0376,46.4501 59.6896,44.1011 59.6896,41.2051 C59.6896,38.3091 62.0376,35.9601 64.9336,35.9601 C67.8306,35.9601 70.1786,38.3091 70.1786,41.2051 Z" id="Stroke-27" stroke="#231F20" stroke-width="3"></path>
                    <path d="M59.827,27.9551 C59.827,30.3811 57.86,32.3481 55.434,32.3481 C53.008,32.3481 51.041,30.3811 51.041,27.9551 C51.041,25.5291 53.008,23.5621 55.434,23.5621 C57.86,23.5621 59.827,25.5291 59.827,27.9551 Z" id="Stroke-29" stroke="#92A7A8" stroke-width="3"></path>
                    <path d="M48.827,16.2051 C48.827,18.6311 46.86,20.5981 44.434,20.5981 C42.008,20.5981 40.041,18.6311 40.041,16.2051 C40.041,13.7791 42.008,11.8121 44.434,11.8121 C46.86,11.8121 48.827,13.7791 48.827,16.2051 Z" id="Stroke-31" stroke="#92A7A8" stroke-width="3"></path>
                    <path d="M37.8139,27.9551 C37.8139,30.3811 35.8469,32.3481 33.4209,32.3481 C30.9949,32.3481 29.0279,30.3811 29.0279,27.9551 C29.0279,25.5291 30.9949,23.5621 33.4209,23.5621 C35.8469,23.5621 37.8139,25.5291 37.8139,27.9551 Z" id="Stroke-33" stroke="#92A7A8" stroke-width="3"></path>
                </g>
            </g>
        </g>
    </g>
</svg>