<?xml version="1.0" encoding="utf-8"?>
<!-- Generator: Adobe Illustrator 21.0.0, SVG Export Plug-In . SVG Version: 6.00 Build 0)  -->
<svg version="1.1" xmlns="http://www.w3.org/2000/svg" xmlns:xlink="http://www.w3.org/1999/xlink" x="0px" y="0px"
	 viewBox="0 0 48 48" enable-background="new 0 0 48 48" xml:space="preserve">
<g id="Layer_2" display="none">
	<rect display="inline" fill="#F9EC31" width="48" height="48"/>
</g>
<g id="Layer_4">
	<g>
		<path d="M43.5,24.39c0-10.75-8.75-19.5-19.5-19.5c-10.75,0-19.5,8.75-19.5,19.5c0,5.85,2.6,11.09,6.69,14.67l-3.47,3.47
			c-0.7,0.7-0.7,1.84,0,2.55c0.35,0.35,0.81,0.53,1.27,0.53c0.46,0,0.92-0.18,1.27-0.53l3.88-3.88c2.89,1.7,6.25,2.7,9.85,2.7
			c3.6,0,6.96-1,9.85-2.7l3.88,3.88c0.35,0.35,0.81,0.53,1.27,0.53c0.46,0,0.92-0.18,1.27-0.53c0.7-0.7,0.7-1.84,0-2.55l-3.47-3.47
			C40.9,35.48,43.5,30.23,43.5,24.39z M8.1,24.39c0-8.77,7.13-15.9,15.9-15.9c8.77,0,15.9,7.13,15.9,15.9s-7.13,15.9-15.9,15.9
			C15.23,40.29,8.1,33.15,8.1,24.39z"/>
		<path d="M24,10.61c-0.99,0-1.8,0.81-1.8,1.8v11.14l-4.46,4.46c-0.7,0.7-0.7,1.84,0,2.55c0.35,0.35,0.81,0.53,1.27,0.53
			c0.46,0,0.92-0.18,1.27-0.53l4.72-4.72c0.46-0.33,0.79-0.84,0.79-1.45V12.41C25.8,11.42,24.99,10.61,24,10.61z"/>
		<path d="M5.26,12.44c-0.31-1.79,0.24-3.55,1.53-4.83c1.28-1.28,3.04-1.84,4.83-1.53c0.98,0.17,1.91-0.49,2.08-1.46
			c0.17-0.98-0.49-1.91-1.47-2.08c-2.91-0.52-5.9,0.44-7.99,2.53s-3.04,5.08-2.53,7.99c0.15,0.87,0.91,1.49,1.77,1.49
			c0.1,0,0.2-0.01,0.31-0.03C4.78,14.35,5.43,13.42,5.26,12.44z"/>
		<path d="M43.76,5.07c-2.09-2.09-5.08-3.04-7.99-2.53c-0.98,0.17-1.63,1.1-1.46,2.08c0.17,0.98,1.1,1.63,2.08,1.46
			c1.78-0.32,3.55,0.24,4.83,1.53c1.28,1.28,1.84,3.04,1.53,4.83c-0.17,0.98,0.49,1.91,1.46,2.08c0.11,0.02,0.21,0.03,0.31,0.03
			c0.86,0,1.62-0.62,1.77-1.49C46.79,10.15,45.85,7.16,43.76,5.07z"/>
	</g>
</g>
</svg>
