<?xml version="1.0" encoding="UTF-8"?>
<svg width="73px" height="76px" viewBox="0 0 73 76" version="1.1" xmlns="http://www.w3.org/2000/svg" xmlns:xlink="http://www.w3.org/1999/xlink">
    <!-- Generator: Sketch 46.2 (44496) - http://www.bohemiancoding.com/sketch -->
    <title>key_dates_icon</title>
    <desc>Created with Sketch.</desc>
    <defs></defs>
    <g id="Page-1" stroke="none" stroke-width="1" fill="none" fill-rule="evenodd">
        <g id="Homepage" transform="translate(-684.000000, -1745.000000)">
            <g id="CALL-FOR" transform="translate(0.000000, 1367.000000)">
                <g id="key_dates_icon" transform="translate(685.000000, 379.000000)">
                    <path d="M65.6018,72.7293 L5.3108,72.7293 C2.6408,72.7293 0.4558,70.5443 0.4558,67.8753 L0.4558,12.5833 C0.4558,9.9143 2.6408,7.7293 5.3108,7.7293 L65.6018,7.7293 C68.2718,7.7293 70.4558,9.9143 70.4558,12.5833 L70.4558,67.8753 C70.4558,70.5563 68.2828,72.7293 65.6018,72.7293" id="Fill-1" fill="#FFFFFF"></path>
                    <path d="M65.6018,72.7293 L5.3108,72.7293 C2.6408,72.7293 0.4558,70.5443 0.4558,67.8753 L0.4558,12.5833 C0.4558,9.9143 2.6408,7.7293 5.3108,7.7293 L65.6018,7.7293 C68.2718,7.7293 70.4558,9.9143 70.4558,12.5833 L70.4558,67.8753 C70.4558,70.5563 68.2828,72.7293 65.6018,72.7293 Z" id="Stroke-3" stroke="#231F20" stroke-width="2.913"></path>
                    <path d="M11.3904,16.4998 L10.8444,16.4998 C8.7944,16.4998 7.1174,14.8228 7.1174,12.7728 L7.1174,4.2278 C7.1174,2.1768 8.7944,0.4998 10.8444,0.4998 L11.3904,0.4998 C13.4404,0.4998 15.1174,2.1768 15.1174,4.2278 L15.1174,12.7728 C15.1174,14.8228 13.4404,16.4998 11.3904,16.4998" id="Fill-5" fill="#92A7A8"></path>
                    <path d="M11.3904,16.4998 L10.8444,16.4998 C8.7944,16.4998 7.1174,14.8228 7.1174,12.7728 L7.1174,4.2278 C7.1174,2.1768 8.7944,0.4998 10.8444,0.4998 L11.3904,0.4998 C13.4404,0.4998 15.1174,2.1768 15.1174,4.2278 L15.1174,12.7728 C15.1174,14.8228 13.4404,16.4998 11.3904,16.4998 Z" id="Stroke-7" stroke="#FFFFFF" stroke-width="3"></path>
                    <path d="M35.4046,16.4998 L34.8586,16.4998 C32.8086,16.4998 31.1316,14.8228 31.1316,12.7728 L31.1316,4.2278 C31.1316,2.1768 32.8086,0.4998 34.8586,0.4998 L35.4046,0.4998 C37.4546,0.4998 39.1316,2.1768 39.1316,4.2278 L39.1316,12.7728 C39.1316,14.8228 37.4546,16.4998 35.4046,16.4998" id="Fill-9" fill="#92A7A8"></path>
                    <path d="M35.4046,16.4998 L34.8586,16.4998 C32.8086,16.4998 31.1316,14.8228 31.1316,12.7728 L31.1316,4.2278 C31.1316,2.1768 32.8086,0.4998 34.8586,0.4998 L35.4046,0.4998 C37.4546,0.4998 39.1316,2.1768 39.1316,4.2278 L39.1316,12.7728 C39.1316,14.8228 37.4546,16.4998 35.4046,16.4998 Z" id="Stroke-11" stroke="#FFFFFF" stroke-width="3"></path>
                    <path d="M59.4192,16.4998 L58.8732,16.4998 C56.8232,16.4998 55.1462,14.8228 55.1462,12.7728 L55.1462,4.2278 C55.1462,2.1768 56.8232,0.4998 58.8732,0.4998 L59.4192,0.4998 C61.4692,0.4998 63.1462,2.1768 63.1462,4.2278 L63.1462,12.7728 C63.1462,14.8228 61.4692,16.4998 59.4192,16.4998" id="Fill-13" fill="#92A7A8"></path>
                    <path d="M59.4192,16.4998 L58.8732,16.4998 C56.8232,16.4998 55.1462,14.8228 55.1462,12.7728 L55.1462,4.2278 C55.1462,2.1768 56.8232,0.4998 58.8732,0.4998 L59.4192,0.4998 C61.4692,0.4998 63.1462,2.1768 63.1462,4.2278 L63.1462,12.7728 C63.1462,14.8228 61.4692,16.4998 59.4192,16.4998 Z" id="Stroke-15" stroke="#FFFFFF" stroke-width="3"></path>
                    <g id="Group-20" transform="translate(0.000000, 20.185700)">
                        <path d="M0.242,0.0641 L70.242,0.0641" id="Fill-17" fill="#FFFFFF"></path>
                        <path d="M0.242,0.0641 L70.242,0.0641" id="Stroke-19" stroke="#231F20" stroke-width="2.913"></path>
                    </g>
                    <path d="M14.742,37.2513 L9.742,37.2513 C9.192,37.2513 8.742,36.8013 8.742,36.2513 L8.742,31.2513 C8.742,30.7013 9.192,30.2513 9.742,30.2513 L14.742,30.2513 C15.292,30.2513 15.742,30.7013 15.742,31.2513 L15.742,36.2513 C15.742,36.8013 15.292,37.2513 14.742,37.2513" id="Fill-21" fill="#92A7A8"></path>
                    <path d="M26.2488,37.2513 L21.2488,37.2513 C20.6988,37.2513 20.2488,36.8013 20.2488,36.2513 L20.2488,31.2513 C20.2488,30.7013 20.6988,30.2513 21.2488,30.2513 L26.2488,30.2513 C26.7988,30.2513 27.2488,30.7013 27.2488,31.2513 L27.2488,36.2513 C27.2488,36.8013 26.7988,37.2513 26.2488,37.2513" id="Fill-23" fill="#3D81D9"></path>
                    <path d="M37.7561,37.2513 L32.7561,37.2513 C32.2061,37.2513 31.7561,36.8013 31.7561,36.2513 L31.7561,31.2513 C31.7561,30.7013 32.2061,30.2513 32.7561,30.2513 L37.7561,30.2513 C38.3061,30.2513 38.7561,30.7013 38.7561,31.2513 L38.7561,36.2513 C38.7561,36.8013 38.3061,37.2513 37.7561,37.2513" id="Fill-25" fill="#92A7A8"></path>
                    <path d="M49.2635,37.2513 L44.2635,37.2513 C43.7135,37.2513 43.2635,36.8013 43.2635,36.2513 L43.2635,31.2513 C43.2635,30.7013 43.7135,30.2513 44.2635,30.2513 L49.2635,30.2513 C49.8135,30.2513 50.2635,30.7013 50.2635,31.2513 L50.2635,36.2513 C50.2635,36.8013 49.8135,37.2513 49.2635,37.2513" id="Fill-27" fill="#92A7A8"></path>
                    <path d="M60.7708,37.2513 L55.7708,37.2513 C55.2208,37.2513 54.7708,36.8013 54.7708,36.2513 L54.7708,31.2513 C54.7708,30.7013 55.2208,30.2513 55.7708,30.2513 L60.7708,30.2513 C61.3208,30.2513 61.7708,30.7013 61.7708,31.2513 L61.7708,36.2513 C61.7708,36.8013 61.3208,37.2513 60.7708,37.2513" id="Fill-29" fill="#92A7A8"></path>
                    <path d="M14.742,49.2586 L9.742,49.2586 C9.192,49.2586 8.742,48.8086 8.742,48.2586 L8.742,43.2586 C8.742,42.7086 9.192,42.2586 9.742,42.2586 L14.742,42.2586 C15.292,42.2586 15.742,42.7086 15.742,43.2586 L15.742,48.2586 C15.742,48.8086 15.292,49.2586 14.742,49.2586" id="Fill-31" fill="#92A7A8"></path>
                    <path d="M26.2488,49.2586 L21.2488,49.2586 C20.6988,49.2586 20.2488,48.8086 20.2488,48.2586 L20.2488,43.2586 C20.2488,42.7086 20.6988,42.2586 21.2488,42.2586 L26.2488,42.2586 C26.7988,42.2586 27.2488,42.7086 27.2488,43.2586 L27.2488,48.2586 C27.2488,48.8086 26.7988,49.2586 26.2488,49.2586" id="Fill-33" fill="#92A7A8"></path>
                    <path d="M37.7561,49.2586 L32.7561,49.2586 C32.2061,49.2586 31.7561,48.8086 31.7561,48.2586 L31.7561,43.2586 C31.7561,42.7086 32.2061,42.2586 32.7561,42.2586 L37.7561,42.2586 C38.3061,42.2586 38.7561,42.7086 38.7561,43.2586 L38.7561,48.2586 C38.7561,48.8086 38.3061,49.2586 37.7561,49.2586" id="Fill-35" fill="#3D81D9"></path>
                    <path d="M49.2635,49.2586 L44.2635,49.2586 C43.7135,49.2586 43.2635,48.8086 43.2635,48.2586 L43.2635,43.2586 C43.2635,42.7086 43.7135,42.2586 44.2635,42.2586 L49.2635,42.2586 C49.8135,42.2586 50.2635,42.7086 50.2635,43.2586 L50.2635,48.2586 C50.2635,48.8086 49.8135,49.2586 49.2635,49.2586" id="Fill-37" fill="#92A7A8"></path>
                    <path d="M60.7708,49.2586 L55.7708,49.2586 C55.2208,49.2586 54.7708,48.8086 54.7708,48.2586 L54.7708,43.2586 C54.7708,42.7086 55.2208,42.2586 55.7708,42.2586 L60.7708,42.2586 C61.3208,42.2586 61.7708,42.7086 61.7708,43.2586 L61.7708,48.2586 C61.7708,48.8086 61.3208,49.2586 60.7708,49.2586" id="Fill-39" fill="#3D81D9"></path>
                    <path d="M14.742,61.2654 L9.742,61.2654 C9.192,61.2654 8.742,60.8154 8.742,60.2654 L8.742,55.2654 C8.742,54.7154 9.192,54.2654 9.742,54.2654 L14.742,54.2654 C15.292,54.2654 15.742,54.7154 15.742,55.2654 L15.742,60.2654 C15.742,60.8154 15.292,61.2654 14.742,61.2654" id="Fill-41" fill="#3D81D9"></path>
                    <path d="M26.2488,61.2654 L21.2488,61.2654 C20.6988,61.2654 20.2488,60.8154 20.2488,60.2654 L20.2488,55.2654 C20.2488,54.7154 20.6988,54.2654 21.2488,54.2654 L26.2488,54.2654 C26.7988,54.2654 27.2488,54.7154 27.2488,55.2654 L27.2488,60.2654 C27.2488,60.8154 26.7988,61.2654 26.2488,61.2654" id="Fill-43" fill="#92A7A8"></path>
                    <path d="M37.7561,61.2654 L32.7561,61.2654 C32.2061,61.2654 31.7561,60.8154 31.7561,60.2654 L31.7561,55.2654 C31.7561,54.7154 32.2061,54.2654 32.7561,54.2654 L37.7561,54.2654 C38.3061,54.2654 38.7561,54.7154 38.7561,55.2654 L38.7561,60.2654 C38.7561,60.8154 38.3061,61.2654 37.7561,61.2654" id="Fill-45" fill="#92A7A8"></path>
                    <path d="M49.2635,61.2654 L44.2635,61.2654 C43.7135,61.2654 43.2635,60.8154 43.2635,60.2654 L43.2635,55.2654 C43.2635,54.7154 43.7135,54.2654 44.2635,54.2654 L49.2635,54.2654 C49.8135,54.2654 50.2635,54.7154 50.2635,55.2654 L50.2635,60.2654 C50.2635,60.8154 49.8135,61.2654 49.2635,61.2654" id="Fill-47" fill="#92A7A8"></path>
                    <path d="M60.7708,61.2654 L55.7708,61.2654 C55.2208,61.2654 54.7708,60.8154 54.7708,60.2654 L54.7708,55.2654 C54.7708,54.7154 55.2208,54.2654 55.7708,54.2654 L60.7708,54.2654 C61.3208,54.2654 61.7708,54.7154 61.7708,55.2654 L61.7708,60.2654 C61.7708,60.8154 61.3208,61.2654 60.7708,61.2654" id="Fill-49" fill="#92A7A8"></path>
                </g>
            </g>
        </g>
    </g>
</svg>