<?xml version="1.0" encoding="UTF-8"?>
<svg width="63px" height="97px" viewBox="0 0 63 97" version="1.1" xmlns="http://www.w3.org/2000/svg" xmlns:xlink="http://www.w3.org/1999/xlink">
    <!-- Generator: Sketch 46.2 (44496) - http://www.bohemiancoding.com/sketch -->
    <title>objectives_icon</title>
    <desc>Created with Sketch.</desc>
    <defs></defs>
    <g id="Page-1" stroke="none" stroke-width="1" fill="none" fill-rule="evenodd">
        <g id="Homepage" transform="translate(-369.000000, -1734.000000)">
            <g id="CALL-FOR" transform="translate(0.000000, 1367.000000)">
                <g id="objectives_icon" transform="translate(370.000000, 368.000000)">
                    <path d="M56.0577,94.3763 L4.9197,94.3763 C2.4887,94.3763 0.4997,92.3873 0.4997,89.9573 L0.4997,12.9333 C0.4997,10.5023 2.4887,8.5133 4.9197,8.5133 L56.0577,8.5133 C58.4887,8.5133 60.4767,10.5023 60.4767,12.9333 L60.4767,89.9573 C60.4767,92.3973 58.4987,94.3763 56.0577,94.3763" id="Fill-1" fill="#FFFFFF"></path>
                    <path d="M56.0577,94.3763 L4.9197,94.3763 C2.4887,94.3763 0.4997,92.3873 0.4997,89.9573 L0.4997,12.9333 C0.4997,10.5023 2.4887,8.5133 4.9197,8.5133 L56.0577,8.5133 C58.4887,8.5133 60.4767,10.5023 60.4767,12.9333 L60.4767,89.9573 C60.4767,92.3973 58.4987,94.3763 56.0577,94.3763 Z" id="Stroke-3" stroke="#231F20" stroke-width="3"></path>
                    <g id="Group-8" transform="translate(0.000000, 75.876300)">
                        <path d="M60.5001,0.878 L60.5001,8.413 C60.5001,10.854 58.5211,12.833 56.0811,12.833 L4.9421,12.833 C2.5111,12.833 0.5221,10.844 0.5221,8.413 L0.5221,0.878" id="Fill-5" fill="#FFFFFF"></path>
                        <path d="M60.5001,0.878 L60.5001,8.413 C60.5001,10.854 58.5211,12.833 56.0811,12.833 L4.9421,12.833 C2.5111,12.833 0.5221,10.844 0.5221,8.413 L0.5221,0.878" id="Stroke-7" stroke="#231F20" stroke-width="3"></path>
                    </g>
                    <g id="Group-12" transform="translate(0.000000, 69.876300)">
                        <path d="M60.5001,0.4678 L60.5001,8.7528 C60.5001,11.1938 58.5211,13.1728 56.0811,13.1728 L4.9421,13.1728 C2.5111,13.1728 0.5221,11.1838 0.5221,8.7528 L0.5221,0.4678" id="Fill-9" fill="#FFFFFF"></path>
                        <path d="M60.5001,0.4678 L60.5001,8.7528 C60.5001,11.1938 58.5211,13.1728 56.0811,13.1728 L4.9421,13.1728 C2.5111,13.1728 0.5221,11.1838 0.5221,8.7528 L0.5221,0.4678" id="Stroke-11" stroke="#231F20" stroke-width="3"></path>
                    </g>
                    <path d="M22.7037,28.1688 L50.4827,28.1688" id="Stroke-13" stroke="#92A7A8" stroke-width="3" stroke-linecap="round"></path>
                    <path d="M22.7037,40.8641 L50.4827,40.8641" id="Stroke-15" stroke="#92A7A8" stroke-width="3" stroke-linecap="round"></path>
                    <path d="M22.7037,53.0106 L50.4827,53.0106" id="Stroke-17" stroke="#92A7A8" stroke-width="3" stroke-linecap="round"></path>
                    <path d="M22.7037,65.3646 L50.4827,65.3646" id="Stroke-19" stroke="#92A7A8" stroke-width="3" stroke-linecap="round"></path>
                    <polyline id="Stroke-21" stroke="#3D81D9" stroke-width="3" stroke-linecap="round" points="9.1295 27.454 11.6545 29.979 15.7585 25.034"></polyline>
                    <polyline id="Stroke-23" stroke="#3D81D9" stroke-width="3" stroke-linecap="round" points="9.1295 40.0882 11.6545 42.6132 15.7585 37.6682"></polyline>
                    <polyline id="Stroke-25" stroke="#3D81D9" stroke-width="3" stroke-linecap="round" points="9.1295 52.723 11.6545 55.248 15.7585 50.303"></polyline>
                    <polyline id="Stroke-27" stroke="#3D81D9" stroke-width="3" stroke-linecap="round" points="9.1295 65.3573 11.6545 67.8823 15.7585 62.9373"></polyline>
                    <path d="M39.982,3.1048 L35.711,3.1048 C34.717,1.5408 32.973,0.4998 30.982,0.4998 C28.991,0.4998 27.247,1.5408 26.253,3.1048 L21.982,3.1048 C18.957,3.1048 16.482,5.5798 16.482,8.6048 C16.482,11.6298 18.957,14.1048 21.982,14.1048 L39.982,14.1048 C43.007,14.1048 45.482,11.6298 45.482,8.6048 C45.482,5.5798 43.007,3.1048 39.982,3.1048" id="Fill-29" fill="#231F20"></path>
                    <path d="M39.982,3.1048 L35.711,3.1048 C34.717,1.5408 32.973,0.4998 30.982,0.4998 C28.991,0.4998 27.247,1.5408 26.253,3.1048 L21.982,3.1048 C18.957,3.1048 16.482,5.5798 16.482,8.6048 C16.482,11.6298 18.957,14.1048 21.982,14.1048 L39.982,14.1048 C43.007,14.1048 45.482,11.6298 45.482,8.6048 C45.482,5.5798 43.007,3.1048 39.982,3.1048 Z" id="Stroke-31" stroke="#FFFFFF" stroke-width="3"></path>
                </g>
            </g>
        </g>
    </g>
</svg>